<svg width="935" height="841" viewBox="0 0 935 841" fill="none" xmlns="http://www.w3.org/2000/svg">
<rect width="933.203" height="832.887" fill="white"/>
<path d="M200.526 109V45.3891H171.508V39.6869C194.063 38.1663 199.512 33.9847 203.947 20.2995H214.591V109H200.526ZM256.211 109V45.3891H227.193V39.6869C249.749 38.1663 255.197 33.9847 259.632 20.2995H270.276V109H256.211ZM287.187 79.9823V70.0985H403.765V79.9823H287.187ZM438.611 109V45.3891H409.594V39.6869C432.149 38.1663 437.598 33.9847 442.033 20.2995H452.677V109H438.611ZM469.334 102.411C469.334 84.9241 477.063 76.1808 509.502 65.5367L529.143 59.0743C547.897 52.8652 551.952 47.9234 551.952 40.4472C551.952 33.4778 545.49 26.8887 523.188 26.8887C500.759 26.8887 492.016 33.7313 486.82 44.7555L474.276 41.2075C479.724 29.1695 491.382 18.5255 523.188 18.5255C556.26 18.5255 567.285 29.6764 567.285 40.4472C567.285 51.3447 561.329 58.5674 536.619 66.6772L516.092 73.3931C488.341 82.5166 484.033 87.7119 483.906 99.7498H569.946V109H469.334V102.411ZM579.844 79.9823V70.0985H696.422V79.9823H579.844ZM731.269 109V45.3891H702.251V39.6869C724.806 38.1663 730.255 33.9847 734.69 20.2995H745.334V109H731.269Z" fill="black"/>
<path d="M205.892 796.332C210.074 754.516 231.996 732.087 257.719 717.135H172.186V707.631H270.77V715.867C244.414 733.608 225.66 755.022 220.211 796.332H205.892ZM279.144 767.314V757.43H395.721V767.314H279.144ZM461.233 798.106C424.612 798.106 406.619 781.633 406.619 752.235C406.619 724.231 426.133 705.857 461.613 705.857C488.984 705.857 500.388 715.361 506.09 725.878L493.165 729.679C487.97 720.809 479.607 714.22 461.613 714.22C435.89 714.22 421.825 727.399 420.811 754.262C427.78 747.546 440.959 739.943 465.541 739.943C499.247 739.943 512.299 753.629 512.299 768.074C512.299 783.533 497.347 798.106 461.233 798.106ZM461.233 789.362C486.449 789.362 496.713 779.605 496.713 768.834C496.713 757.937 486.449 748.053 461.74 748.053C436.27 748.053 426.006 757.937 426.006 768.834C426.006 779.605 436.27 789.362 461.233 789.362ZM522.674 767.314V757.43H639.252V767.314H522.674ZM701.342 798.106C667.889 798.106 654.964 787.715 648.502 776.944L661.3 771.369C667.129 781.379 677.266 789.362 701.342 789.362C727.699 789.362 736.822 778.591 736.822 765.92C736.822 753.882 727.192 743.618 703.116 743.618C682.842 743.618 671.437 750.714 664.975 756.67L654.331 754.009L662.187 707.631H746.453V717.135H672.578L667.763 745.265C674.605 740.197 686.77 735.255 705.904 735.255C738.089 735.255 752.788 749.194 752.788 765.92C752.788 782.773 737.709 798.106 701.342 798.106Z" fill="black"/>
<path d="M802.373 227.806C802.373 210.319 810.103 201.576 842.542 190.932L862.183 184.469C880.937 178.26 884.991 173.318 884.991 165.842C884.991 158.873 878.529 152.284 856.227 152.284C833.799 152.284 825.055 159.126 819.86 170.151L807.315 166.602C812.764 154.565 824.422 143.92 856.227 143.92C889.3 143.92 900.324 155.071 900.324 165.842C900.324 176.74 894.368 183.962 869.659 192.072L849.131 198.788C821.38 207.912 817.072 213.107 816.945 225.145H902.985V234.395H802.373V227.806Z" fill="black"/>
<path d="M38.3783 234.395V170.784H9.36058V165.082C31.9159 163.561 37.3646 159.38 41.7996 145.695H52.4437V234.395H38.3783ZM124.855 236.169C90.2622 236.169 70.1145 216.275 70.1145 190.298C70.1145 163.941 90.1355 143.92 124.855 143.92C159.575 143.92 179.596 163.941 179.596 188.524C179.596 216.021 159.449 236.169 124.855 236.169ZM124.855 227.299C148.678 227.299 163.884 212.093 163.884 188.651C163.884 167.616 148.805 152.537 124.855 152.537C100.906 152.537 85.8272 167.616 85.8272 189.918C85.8272 212.093 101.033 227.299 124.855 227.299Z" fill="black"/>
<path d="M854.238 465.84C820.025 465.84 806.847 456.083 799.371 443.918L812.676 438.596C818.758 448.86 828.389 457.097 854.365 457.097C879.455 457.097 887.945 448.353 887.945 438.47C887.945 429.473 880.215 421.997 858.673 421.997H831.303V413.38H858.673C877.047 413.38 883.89 406.791 883.89 398.048C883.89 389.558 876.414 381.955 852.971 381.955C831.176 381.955 822.94 388.544 817.998 398.174L804.82 394.88C810.395 383.349 821.673 373.592 853.098 373.592C887.184 373.592 898.842 385.376 898.842 397.414C898.842 406.664 892.126 413.507 878.948 417.055C893.393 419.716 902.897 427.192 902.897 439.103C902.897 453.169 890.099 465.84 854.238 465.84Z" fill="black"/>
<path d="M79.3105 465.84C50.9264 465.84 38.7617 456.083 32.6794 446.326L45.4776 441.637C51.5599 450.508 60.0498 457.35 79.3105 457.35C104.907 457.35 118.972 443.792 120.239 417.435C113.27 424.151 100.092 431.754 75.5091 431.754C41.8029 431.754 28.7512 418.068 28.7512 403.623C28.7512 388.164 43.7036 373.592 79.8174 373.592C116.438 373.592 134.432 390.064 134.432 419.462C134.432 447.466 114.917 465.84 79.3105 465.84ZM79.3105 423.644C104.78 423.644 115.044 413.76 115.044 402.863C115.044 392.092 104.78 382.335 79.8174 382.335C54.6011 382.335 44.3372 392.092 44.3372 402.863C44.3372 413.76 54.6011 423.644 79.3105 423.644Z" fill="black"/>
<path d="M869.863 691.097V668.795H795.608V660.052L868.596 602.397H883.802V660.179H907.118V668.795H883.802V691.097H869.863ZM810.181 660.179H869.863V613.041L810.181 660.179Z" fill="black"/>
<path d="M81.78 692.871C41.6113 692.871 28.3062 680.707 28.3062 666.895C28.3062 655.11 37.8099 648.521 51.3684 644.846C39.964 641.045 32.4878 634.202 32.4878 624.192C32.4878 611.9 43.8922 600.623 81.78 600.623C118.907 600.623 131.199 611.774 131.199 624.192C131.199 634.075 123.723 641.045 112.318 644.846C125.75 648.521 135.38 655.11 135.38 666.895C135.38 680.707 122.075 692.871 81.78 692.871ZM82.0334 684.381C111.811 684.381 120.555 676.018 120.555 666.768C120.555 657.771 112.065 648.774 82.2868 648.774C52.6355 648.774 43.0052 657.644 43.0052 666.768C43.0052 675.891 52.3821 684.381 82.0334 684.381ZM82.2868 640.665C109.277 640.665 116.627 632.555 116.627 624.318C116.627 616.335 109.277 608.859 82.2868 608.859C55.4233 608.859 47.0601 616.209 47.0601 624.318C47.0601 632.428 55.4233 640.665 82.2868 640.665Z" fill="black"/>
<path d="M861.392 360.557H851.508V243.979H861.392V360.557Z" fill="black"/>
<path d="M91.8618 360.557H81.978V243.979H91.8618V360.557Z" fill="black"/>
<path d="M864.031 590.228H854.148V473.65H864.031V590.228Z" fill="black"/>
<path d="M94.5018 590.228H84.618V473.65H94.5018V590.228Z" fill="black"/>
</svg>
