<svg width="512" height="619" viewBox="0 0 512 619" fill="none" xmlns="http://www.w3.org/2000/svg">
<g clip-path="url(#clip0_113_2)">
<path d="M0.495735 326.603C0.495735 335.992 8.10726 343.603 17.4966 343.603C26.8859 343.603 34.4974 335.992 34.4974 326.603C34.4974 317.213 26.8859 309.602 17.4966 309.602C8.10726 309.602 0.495735 317.213 0.495735 326.603Z" fill="black" stroke="black" stroke-width="0.972031"/>
<path d="M104.416 303.274C104.416 315.396 114.242 325.222 126.364 325.222C138.486 325.222 148.313 315.396 148.313 303.274C148.313 291.152 138.486 281.325 126.364 281.325C114.242 281.325 104.416 291.152 104.416 303.274Z" fill="black" stroke="black" stroke-width="0.972031"/>
<path d="M358.193 597.799C358.193 606.12 364.939 612.866 373.26 612.866C381.581 612.866 388.326 606.12 388.326 597.799C388.326 589.478 381.581 582.733 373.26 582.733C364.939 582.733 358.193 589.478 358.193 597.799Z" fill="black" stroke="black" stroke-width="0.972031"/>
<path d="M212.175 174.966C212.175 183.405 219.016 190.246 227.455 190.246C235.894 190.246 242.736 183.405 242.736 174.966C242.736 166.527 235.894 159.685 227.455 159.685C219.016 159.685 212.175 166.527 212.175 174.966Z" fill="black" stroke="black" stroke-width="0.972031"/>
<path d="M484.558 299.386C484.558 306.633 490.433 312.508 497.68 312.508C504.927 312.508 510.802 306.633 510.802 299.386C510.802 292.138 504.927 286.263 497.68 286.263C490.433 286.263 484.558 292.138 484.558 299.386Z" fill="black" stroke="black" stroke-width="0.972031"/>
<path d="M154.047 308.134C154.047 316.466 160.802 323.22 169.133 323.22C177.465 323.22 184.219 316.466 184.219 308.134C184.219 299.802 177.465 293.048 169.133 293.048C160.802 293.048 154.047 299.802 154.047 308.134Z" fill="black" stroke="black" stroke-width="0.972031"/>
<path d="M438.853 179.826C438.853 195.673 451.7 208.52 467.547 208.52C483.394 208.52 496.241 195.673 496.241 179.826C496.241 163.978 483.394 151.132 467.547 151.132C451.7 151.132 438.853 163.978 438.853 179.826Z" fill="black" stroke="black" stroke-width="0.972031"/>
<path d="M222.274 46.6576C222.274 52.7399 227.205 57.6707 233.287 57.6707C239.37 57.6707 244.301 52.7399 244.301 46.6576C244.301 40.5752 239.37 35.6445 233.287 35.6445C227.205 35.6445 222.274 40.5752 222.274 46.6576Z" fill="black" stroke="black" stroke-width="0.972031"/>
<path d="M134.811 108.868C134.811 117.623 141.909 124.722 150.665 124.722C159.421 124.722 166.519 117.623 166.519 108.868C166.519 100.112 159.421 93.0138 150.665 93.0138C141.909 93.0138 134.811 100.112 134.811 108.868Z" fill="black" stroke="black" stroke-width="0.972031"/>
<path d="M20.8986 599.743C20.8986 606.991 26.7737 612.866 34.021 612.866C41.2683 612.866 47.1434 606.991 47.1434 599.743C47.1434 592.496 41.2683 586.621 34.021 586.621C26.7737 586.621 20.8986 592.496 20.8986 599.743Z" fill="black" stroke="black" stroke-width="0.972031"/>
<path d="M143.375 12.6364C143.375 19.3469 148.814 24.7868 155.525 24.7868C162.235 24.7868 167.675 19.3469 167.675 12.6364C167.675 5.92593 162.235 0.486016 155.525 0.486016C148.814 0.486016 143.375 5.92593 143.375 12.6364Z" fill="black" stroke="black" stroke-width="0.972031"/>
<path d="M124.498 45.6855C124.498 56.3794 133.167 65.0484 143.861 65.0484C154.554 65.0484 163.223 56.3794 163.223 45.6855C163.223 34.9917 154.554 26.3227 143.861 26.3227C133.167 26.3227 124.498 34.9917 124.498 45.6855Z" fill="black" stroke="black" stroke-width="0.972031"/>
<path d="M469.015 59.2939C469.015 70.8306 478.367 80.1829 489.904 80.1829C501.44 80.1829 510.793 70.8306 510.793 59.2939C510.793 47.7573 501.44 38.405 489.904 38.405C478.367 38.405 469.015 47.7573 469.015 59.2939Z" fill="black" stroke="black" stroke-width="0.972031"/>
<path d="M307.512 339.239C307.512 349.245 315.624 357.357 325.631 357.357C335.637 357.357 343.749 349.245 343.749 339.239C343.749 329.232 335.637 321.12 325.631 321.12C315.624 321.12 307.512 329.232 307.512 339.239Z" fill="black" stroke="black" stroke-width="0.972031"/>
<path d="M300.912 290.638C300.912 303.752 311.543 314.384 324.658 314.384C337.773 314.384 348.405 303.752 348.405 290.638C348.405 277.523 337.773 266.891 324.658 266.891C311.543 266.891 300.912 277.523 300.912 290.638Z" fill="black" stroke="black" stroke-width="0.972031"/>
<path d="M249.414 280.917C249.414 286.506 253.944 291.036 259.532 291.036C265.121 291.036 269.651 286.506 269.651 280.917C269.651 275.329 265.121 270.798 259.532 270.798C253.944 270.798 249.414 275.329 249.414 280.917Z" fill="black" stroke="black" stroke-width="0.972031"/>
<path d="M267.347 307.162C267.347 314.656 273.423 320.732 280.917 320.732C288.411 320.732 294.487 314.656 294.487 307.162C294.487 299.668 288.411 293.592 280.917 293.592C273.423 293.592 267.347 299.668 267.347 307.162Z" fill="black" stroke="black" stroke-width="0.972031"/>
<path d="M67.838 585.163C67.838 595.476 76.198 603.836 86.5107 603.836C96.8234 603.836 105.183 595.476 105.183 585.163C105.183 574.85 96.8234 566.49 86.5107 566.49C76.198 566.49 67.838 574.85 67.838 585.163Z" fill="black" stroke="black" stroke-width="0.972031"/>
<path d="M476.198 324.658C476.198 330.617 481.029 335.448 486.988 335.448C492.947 335.448 497.777 330.617 497.777 324.658C497.777 318.699 492.947 313.869 486.988 313.869C481.029 313.869 476.198 318.699 476.198 324.658Z" fill="black" stroke="black" stroke-width="0.972031"/>
<path d="M0.495701 109.84C0.495701 119.766 8.54242 127.813 18.4686 127.813C28.3947 127.813 36.4414 119.766 36.4414 109.84C36.4414 99.9136 28.3947 91.8669 18.4686 91.8669C8.54242 91.8669 0.495701 99.9136 0.495701 109.84Z" fill="black" stroke="black" stroke-width="0.972031"/>
<path d="M167.743 385.897C167.743 393.106 173.588 398.951 180.798 398.951C188.007 398.951 193.852 393.106 193.852 385.897C193.852 378.687 188.007 372.842 180.798 372.842C173.588 372.842 167.743 378.687 167.743 385.897Z" fill="black" stroke="black" stroke-width="0.972031"/>
<path d="M38.0163 325.63C38.0163 334.698 45.3667 342.048 54.4339 342.048C63.5011 342.048 70.8515 334.698 70.8515 325.63C70.8515 316.563 63.5011 309.213 54.4339 309.213C45.3667 309.213 38.0163 316.563 38.0163 325.63Z" fill="black" stroke="black" stroke-width="0.972031"/>
<path d="M141.839 561.834C141.839 568.319 147.096 573.576 153.581 573.576C160.066 573.576 165.323 568.319 165.323 561.834C165.323 555.349 160.066 550.092 153.581 550.092C147.096 550.092 141.839 555.349 141.839 561.834Z" fill="black" stroke="black" stroke-width="0.972031"/>
<path d="M332.93 366.456C332.93 372.624 337.931 377.625 344.099 377.625C350.267 377.625 355.268 372.624 355.268 366.456C355.268 360.288 350.267 355.287 344.099 355.287C337.931 355.287 332.93 360.288 332.93 366.456Z" fill="black" stroke="black" stroke-width="0.972031"/>
<path d="M124.595 81.6507C124.595 87.9961 129.739 93.1401 136.084 93.1401C142.43 93.1401 147.574 87.9961 147.574 81.6507C147.574 75.3053 142.43 70.1613 136.084 70.1613C129.739 70.1613 124.595 75.3053 124.595 81.6507Z" fill="black" stroke="black" stroke-width="0.972031"/>
<path d="M320.76 241.064C320.76 249.122 327.293 255.654 335.351 255.654C343.409 255.654 349.941 249.122 349.941 241.064C349.941 233.006 343.409 226.474 335.351 226.474C327.293 226.474 320.76 233.006 320.76 241.064Z" fill="black" stroke="black" stroke-width="0.972031"/>
<path d="M8.4081 272.169C8.4081 278.262 13.3475 283.201 19.4407 283.201C25.5338 283.201 30.4732 278.262 30.4732 272.169C30.4732 266.076 25.5338 261.136 19.4407 261.136C13.3475 261.136 8.4081 266.076 8.4081 272.169Z" fill="black" stroke="black" stroke-width="0.972031"/>
<path d="M482.613 246.896C482.613 254.68 488.924 260.991 496.708 260.991C504.492 260.991 510.802 254.68 510.802 246.896C510.802 239.112 504.492 232.802 496.708 232.802C488.924 232.802 482.613 239.112 482.613 246.896Z" fill="black" stroke="black" stroke-width="0.972031"/>
<path d="M168.249 146.777C168.249 157.465 176.914 166.13 187.602 166.13C198.291 166.13 206.955 157.465 206.955 146.777C206.955 136.088 198.291 127.424 187.602 127.424C176.914 127.424 168.249 136.088 168.249 146.777Z" fill="black" stroke="black" stroke-width="0.972031"/>
<path d="M193.347 400.477C193.347 406.967 198.608 412.229 205.098 412.229C211.589 412.229 216.85 406.967 216.85 400.477C216.85 393.987 211.589 388.725 205.098 388.725C198.608 388.725 193.347 393.987 193.347 400.477Z" fill="black" stroke="black" stroke-width="0.972031"/>
<path d="M165.751 541.422C165.751 547.585 170.747 552.581 176.91 552.581C183.073 552.581 188.069 547.585 188.069 541.422C188.069 535.259 183.073 530.263 176.91 530.263C170.747 530.263 165.751 535.259 165.751 541.422Z" fill="black" stroke="black" stroke-width="0.972031"/>
<path d="M215.655 433.526C215.655 441.654 222.244 448.242 230.371 448.242C238.499 448.242 245.088 441.654 245.088 433.526C245.088 425.398 238.499 418.809 230.371 418.809C222.244 418.809 215.655 425.398 215.655 433.526Z" fill="black" stroke="black" stroke-width="0.972031"/>
<path d="M5.97815 366.456C5.97815 377.649 15.0519 386.723 26.245 386.723C37.4381 386.723 46.5118 377.649 46.5118 366.456C46.5118 355.263 37.4381 346.189 26.245 346.189C15.0519 346.189 5.97815 355.263 5.97815 366.456Z" fill="black" stroke="black" stroke-width="0.972031"/>
<path d="M39.377 20.4127C39.377 31.4125 48.2941 40.3296 59.2939 40.3296C70.2937 40.3296 79.2108 31.4125 79.2108 20.4127C79.2108 9.41289 70.2937 0.495781 59.2939 0.495781C48.2941 0.495781 39.377 9.41289 39.377 20.4127Z" fill="black" stroke="black" stroke-width="0.972031"/>
<path d="M140.682 277.029C140.682 283.079 145.587 287.984 151.637 287.984C157.687 287.984 162.592 283.079 162.592 277.029C162.592 270.979 157.687 266.074 151.637 266.074C145.587 266.074 140.682 270.979 140.682 277.029Z" fill="black" stroke="black" stroke-width="0.972031"/>
<path d="M482.613 363.54C482.613 371.324 488.924 377.634 496.708 377.634C504.492 377.634 510.802 371.324 510.802 363.54C510.802 355.756 504.492 349.445 496.708 349.445C488.924 349.445 482.613 355.756 482.613 363.54Z" fill="black" stroke="black" stroke-width="0.972031"/>
<path d="M457.146 25.2729C457.146 33.1644 463.544 39.5618 471.435 39.5618C479.327 39.5618 485.724 33.1644 485.724 25.2729C485.724 17.3814 479.327 10.9841 471.435 10.9841C463.544 10.9841 457.146 17.3814 457.146 25.2729Z" fill="black" stroke="black" stroke-width="0.972031"/>
<path d="M102.763 34.9931C102.763 40.5118 107.237 44.9856 112.756 44.9856C118.274 44.9856 122.748 40.5118 122.748 34.9931C122.748 29.4744 118.274 25.0007 112.756 25.0007C107.237 25.0007 102.763 29.4744 102.763 34.9931Z" fill="black" stroke="black" stroke-width="0.972031"/>
<path d="M170.805 17.4965C170.805 25.1625 177.02 31.3771 184.686 31.3771C192.352 31.3771 198.567 25.1625 198.567 17.4965C198.567 9.83046 192.352 3.6159 184.686 3.6159C177.02 3.6159 170.805 9.83046 170.805 17.4965Z" fill="black" stroke="black" stroke-width="0.972031"/>
<path d="M159.831 586.135C159.831 598.251 169.654 608.073 181.77 608.073C193.886 608.073 203.709 598.251 203.709 586.135C203.709 574.018 193.886 564.196 181.77 564.196C169.654 564.196 159.831 574.018 159.831 586.135Z" fill="black" stroke="black" stroke-width="0.972031"/>
<path d="M239.985 212.875C239.985 220.45 246.125 226.59 253.7 226.59C261.275 226.59 267.415 220.45 267.415 212.875C267.415 205.3 261.275 199.16 253.7 199.16C246.125 199.16 239.985 205.3 239.985 212.875Z" fill="black" stroke="black" stroke-width="0.972031"/>
<path d="M82.1659 313.966C82.1659 319.587 86.7223 324.143 92.343 324.143C97.9637 324.143 102.52 319.587 102.52 313.966C102.52 308.345 97.9637 303.789 92.343 303.789C86.7223 303.789 82.1659 308.345 82.1659 313.966Z" fill="black" stroke="black" stroke-width="0.972031"/>
<path d="M85.772 348.959C85.772 357.957 93.0659 365.251 102.063 365.251C111.061 365.251 118.354 357.957 118.354 348.959C118.354 339.962 111.061 332.668 102.063 332.668C93.0659 332.668 85.772 339.962 85.772 348.959Z" fill="black" stroke="black" stroke-width="0.972031"/>
<path d="M462.648 96.2311C462.648 104.305 469.193 110.85 477.267 110.85C485.341 110.85 491.887 104.305 491.887 96.2311C491.887 88.1571 485.341 81.6117 477.267 81.6117C469.193 81.6117 462.648 88.1571 462.648 96.2311Z" fill="black" stroke="black" stroke-width="0.972031"/>
<path d="M181.964 221.623C181.964 229.032 187.97 235.037 195.378 235.037C202.787 235.037 208.792 229.032 208.792 221.623C208.792 214.215 202.787 208.209 195.378 208.209C187.97 208.209 181.964 214.215 181.964 221.623Z" fill="black" stroke="black" stroke-width="0.972031"/>
<path d="M230.711 401.449C230.711 407.703 235.781 412.773 242.036 412.773C248.29 412.773 253.36 407.703 253.36 401.449C253.36 395.195 248.29 390.125 242.036 390.125C235.781 390.125 230.711 395.195 230.711 401.449Z" fill="black" stroke="black" stroke-width="0.972031"/>
<path d="M426.391 224.539C426.391 230.627 431.326 235.562 437.414 235.562C443.502 235.562 448.437 230.627 448.437 224.539C448.437 218.452 443.502 213.517 437.414 213.517C431.326 213.517 426.391 218.452 426.391 224.539Z" fill="black" stroke="black" stroke-width="0.972031"/>
<path d="M35.1583 571.554C35.1583 579.516 41.6122 585.97 49.5735 585.97C57.5348 585.97 63.9887 579.516 63.9887 571.554C63.9887 563.593 57.5348 557.139 49.5735 557.139C41.6122 557.139 35.1583 563.593 35.1583 571.554Z" fill="black" stroke="black" stroke-width="0.972031"/>
<path d="M385.245 578.359C385.245 585.697 391.194 591.646 398.533 591.646C405.871 591.646 411.82 585.697 411.82 578.359C411.82 571.02 405.871 565.071 398.533 565.071C391.194 565.071 385.245 571.02 385.245 578.359Z" fill="black" stroke="black" stroke-width="0.972031"/>
<path d="M480.669 137.056C480.669 145.377 487.415 152.123 495.736 152.123C504.057 152.123 510.802 145.377 510.802 137.056C510.802 128.735 504.057 121.99 495.736 121.99C487.415 121.99 480.669 128.735 480.669 137.056Z" fill="black" stroke="black" stroke-width="0.972031"/>
<path d="M1.86637 30.1331C1.86637 39.8391 9.73467 47.7074 19.4407 47.7074C29.1467 47.7074 37.015 39.8391 37.015 30.1331C37.015 20.4271 29.1467 12.5588 19.4407 12.5588C9.73467 12.5588 1.86637 20.4271 1.86637 30.1331Z" fill="black" stroke="black" stroke-width="0.972031"/>
<path d="M16.0483 62.2102C16.0483 68.9153 21.4839 74.3509 28.189 74.3509C34.8941 74.3509 40.3297 68.9153 40.3297 62.2102C40.3297 55.5051 34.8941 50.0695 28.189 50.0695C21.4839 50.0695 16.0483 55.5051 16.0483 62.2102Z" fill="black" stroke="black" stroke-width="0.972031"/>
<path d="M166.11 276.057C166.11 283.632 172.251 289.772 179.826 289.772C187.4 289.772 193.541 283.632 193.541 276.057C193.541 268.482 187.4 262.342 179.826 262.342C172.251 262.342 166.11 268.482 166.11 276.057Z" fill="black" stroke="black" stroke-width="0.972031"/>
<path d="M0.485968 575.443C0.485968 583.227 6.79627 589.537 14.5804 589.537C22.3646 589.537 28.6749 583.227 28.6749 575.443C28.6749 567.658 22.3646 561.348 14.5804 561.348C6.79627 561.348 0.485968 567.658 0.485968 575.443Z" fill="black" stroke="black" stroke-width="0.972031"/>
<path d="M235.727 24.301C235.727 31.0061 241.163 36.4417 247.868 36.4417C254.573 36.4417 260.009 31.0061 260.009 24.301C260.009 17.5959 254.573 12.1603 247.868 12.1603C241.163 12.1603 235.727 17.5959 235.727 24.301Z" fill="black" stroke="black" stroke-width="0.972031"/>
<path d="M108.79 588.079C108.79 599.396 117.964 608.569 129.28 608.569C140.597 608.569 149.771 599.396 149.771 588.079C149.771 576.762 140.597 567.589 129.28 567.589C117.964 567.589 108.79 576.762 108.79 588.079Z" fill="black" stroke="black" stroke-width="0.972031"/>
<path d="M282.375 602.66C282.375 608.296 286.945 612.866 292.581 612.866C298.218 612.866 302.788 608.296 302.788 602.66C302.788 597.023 298.218 592.453 292.581 592.453C286.945 592.453 282.375 597.023 282.375 602.66Z" fill="black" stroke="black" stroke-width="0.972031"/>
<path d="M486.502 214.819C486.502 221.529 491.942 226.969 498.652 226.969C505.362 226.969 510.802 221.529 510.802 214.819C510.802 208.109 505.362 202.669 498.652 202.669C491.942 202.669 486.502 208.109 486.502 214.819Z" fill="black" stroke="black" stroke-width="0.972031"/>
<path d="M26.8281 294.526C26.8281 302.256 33.0949 308.523 40.8253 308.523C48.5558 308.523 54.8226 302.256 54.8226 294.526C54.8226 286.795 48.5558 280.528 40.8253 280.528C33.0949 280.528 26.8281 286.795 26.8281 294.526Z" fill="black" stroke="black" stroke-width="0.972031"/>
<path d="M0.485973 543.366C0.485973 549.002 5.0555 553.572 10.6923 553.572C16.3291 553.572 20.8986 549.002 20.8986 543.366C20.8986 537.729 16.3291 533.159 10.6923 533.159C5.0555 533.159 0.485973 537.729 0.485973 543.366Z" fill="black" stroke="black" stroke-width="0.972031"/>
<path d="M199.451 475.323C199.451 481.126 204.156 485.831 209.959 485.831C215.762 485.831 220.466 481.126 220.466 475.323C220.466 469.52 215.762 464.816 209.959 464.816C204.156 464.816 199.451 469.52 199.451 475.323Z" fill="black" stroke="black" stroke-width="0.972031"/>
<path d="M328.313 594.883C328.313 600.917 333.205 605.809 339.239 605.809C345.273 605.809 350.164 600.917 350.164 594.883C350.164 588.849 345.273 583.957 339.239 583.957C333.205 583.957 328.313 588.849 328.313 594.883Z" fill="black" stroke="black" stroke-width="0.972031"/>
<path d="M422.328 25.2729C422.328 32.5309 428.212 38.4148 435.47 38.4148C442.728 38.4148 448.612 32.5309 448.612 25.2729C448.612 18.0148 442.728 12.131 435.47 12.131C428.212 12.131 422.328 18.0148 422.328 25.2729Z" fill="black" stroke="black" stroke-width="0.972031"/>
<path d="M199.422 30.1332C199.422 37.0262 205.009 42.614 211.902 42.614C218.795 42.614 224.383 37.0262 224.383 30.1332C224.383 23.2402 218.795 17.6523 211.902 17.6523C205.009 17.6523 199.422 23.2402 199.422 30.1332Z" fill="black" stroke="black" stroke-width="0.972031"/>
<path d="M482.613 537.533C482.613 545.318 488.924 551.628 496.708 551.628C504.492 551.628 510.802 545.318 510.802 537.533C510.802 529.749 504.492 523.439 496.708 523.439C488.924 523.439 482.613 529.749 482.613 537.533Z" fill="black" stroke="black" stroke-width="0.972031"/>
<path d="M357.6 560.862C357.6 566.827 362.435 571.662 368.4 571.662C374.364 571.662 379.199 566.827 379.199 560.862C379.199 554.898 374.364 550.063 368.4 550.063C362.435 550.063 357.6 554.898 357.6 560.862Z" fill="black" stroke="black" stroke-width="0.972031"/>
<path d="M474.837 272.169C474.837 277.806 479.407 282.375 485.044 282.375C490.68 282.375 495.25 277.806 495.25 272.169C495.25 266.532 490.68 261.963 485.044 261.963C479.407 261.963 474.837 266.532 474.837 272.169Z" fill="black" stroke="black" stroke-width="0.972031"/>
<path d="M244.962 527.813C244.962 535.324 251.05 541.412 258.56 541.412C266.071 541.412 272.159 535.324 272.159 527.813C272.159 520.303 266.071 514.215 258.56 514.215C251.05 514.215 244.962 520.303 244.962 527.813Z" fill="black" stroke="black" stroke-width="0.972031"/>
<path d="M490.39 22.3569C490.39 27.9937 494.959 32.5632 500.596 32.5632C506.233 32.5632 510.802 27.9937 510.802 22.3569C510.802 16.7201 506.233 12.1506 500.596 12.1506C494.959 12.1506 490.39 16.7201 490.39 22.3569Z" fill="black" stroke="black" stroke-width="0.972031"/>
<path d="M451.693 228.427C451.693 235.573 457.486 241.365 464.631 241.365C471.776 241.365 477.569 235.573 477.569 228.427C477.569 221.282 471.776 215.49 464.631 215.49C457.486 215.49 451.693 221.282 451.693 228.427Z" fill="black" stroke="black" stroke-width="0.972031"/>
<path d="M192.812 447.134C192.812 453.383 197.878 458.449 204.127 458.449C210.375 458.449 215.441 453.383 215.441 447.134C215.441 440.885 210.375 435.82 204.127 435.82C197.878 435.82 192.812 440.885 192.812 447.134Z" fill="black" stroke="black" stroke-width="0.972031"/>
<path d="M397.221 217.735C397.221 223.291 401.725 227.796 407.281 227.796C412.837 227.796 417.342 223.291 417.342 217.735C417.342 212.179 412.837 207.674 407.281 207.674C401.725 207.674 397.221 212.179 397.221 217.735Z" fill="black" stroke="black" stroke-width="0.972031"/>
<path d="M114.214 11.6644C114.214 17.838 119.218 22.8427 125.392 22.8427C131.566 22.8427 136.57 17.838 136.57 11.6644C136.57 5.49074 131.566 0.486016 125.392 0.486016C119.218 0.486016 114.214 5.49074 114.214 11.6644Z" fill="black" stroke="black" stroke-width="0.972031"/>
<path d="M451.839 347.015C451.839 354.08 457.566 359.807 464.631 359.807C471.696 359.807 477.423 354.08 477.423 347.015C477.423 339.95 471.696 334.223 464.631 334.223C457.566 334.223 451.839 339.95 451.839 347.015Z" fill="black" stroke="black" stroke-width="0.972031"/>
<path d="M210.746 143.861C210.746 149.331 215.181 153.766 220.651 153.766C226.121 153.766 230.556 149.331 230.556 143.861C230.556 138.39 226.121 133.956 220.651 133.956C215.181 133.956 210.746 138.39 210.746 143.861Z" fill="black" stroke="black" stroke-width="0.972031"/>
<path d="M179.291 184.686C179.291 191.423 184.753 196.885 191.49 196.885C198.227 196.885 203.689 191.423 203.689 184.686C203.689 177.949 198.227 172.487 191.49 172.487C184.753 172.487 179.291 177.949 179.291 184.686Z" fill="black" stroke="black" stroke-width="0.972031"/>
<path d="M277.554 335.351C277.554 341.503 282.541 346.491 288.693 346.491C294.845 346.491 299.833 341.503 299.833 335.351C299.833 329.199 294.845 324.212 288.693 324.212C282.541 324.212 277.554 329.199 277.554 335.351Z" fill="black" stroke="black" stroke-width="0.972031"/>
<path d="M59.1385 354.792C59.1385 361.319 64.4304 366.611 70.9584 366.611C77.4863 366.611 82.7783 361.319 82.7783 354.792C82.7783 348.264 77.4863 342.972 70.9584 342.972C64.4304 342.972 59.1385 348.264 59.1385 354.792Z" fill="black" stroke="black" stroke-width="0.972031"/>
<path d="M82.5254 16.5244C82.5254 23.0202 87.7912 28.286 94.287 28.286C100.783 28.286 106.049 23.0202 106.049 16.5244C106.049 10.0287 100.783 4.76287 94.287 4.76287C87.7912 4.76287 82.5254 10.0287 82.5254 16.5244Z" fill="black" stroke="black" stroke-width="0.972031"/>
<path d="M167.918 245.924C167.918 252.5 173.25 257.831 179.826 257.831C186.402 257.831 191.733 252.5 191.733 245.924C191.733 239.348 186.402 234.017 179.826 234.017C173.25 234.017 167.918 239.348 167.918 245.924Z" fill="black" stroke="black" stroke-width="0.972031"/>
<path d="M441.253 52.4898C441.253 58.9587 446.498 64.2027 452.966 64.2027C459.435 64.2027 464.679 58.9587 464.679 52.4898C464.679 46.0209 459.435 40.7768 452.966 40.7768C446.498 40.7768 441.253 46.0209 441.253 52.4898Z" fill="black" stroke="black" stroke-width="0.972031"/>
<path d="M348.629 344.099C348.629 349.65 353.128 354.15 358.679 354.15C364.23 354.15 368.73 349.65 368.73 344.099C368.73 338.548 364.23 334.048 358.679 334.048C353.128 334.048 348.629 338.548 348.629 344.099Z" fill="black" stroke="black" stroke-width="0.972031"/>
<path d="M213.759 206.071C213.759 212.561 219.021 217.822 225.511 217.822C232.001 217.822 237.263 212.561 237.263 206.071C237.263 199.58 232.001 194.319 225.511 194.319C219.021 194.319 213.759 199.58 213.759 206.071Z" fill="black" stroke="black" stroke-width="0.972031"/>
<path d="M199.101 121.504C199.101 127.5 203.962 132.362 209.959 132.362C215.955 132.362 220.816 127.5 220.816 121.504C220.816 115.508 215.955 110.646 209.959 110.646C203.962 110.646 199.101 115.508 199.101 121.504Z" fill="black" stroke="black" stroke-width="0.972031"/>
<path d="M454.483 131.224C454.483 136.829 459.026 141.372 464.631 141.372C470.235 141.372 474.779 136.829 474.779 131.224C474.779 125.62 470.235 121.076 464.631 121.076C459.026 121.076 454.483 125.62 454.483 131.224Z" fill="black" stroke="black" stroke-width="0.972031"/>
<path d="M195.009 557.946C195.009 564.055 199.961 569.008 206.07 569.008C212.18 569.008 217.132 564.055 217.132 557.946C217.132 551.837 212.18 546.884 206.07 546.884C199.961 546.884 195.009 551.837 195.009 557.946Z" fill="black" stroke="black" stroke-width="0.972031"/>
<path d="M353.703 235.232C353.703 241.201 358.542 246.041 364.512 246.041C370.481 246.041 375.321 241.201 375.321 235.232C375.321 229.262 370.481 224.423 364.512 224.423C358.542 224.423 353.703 229.262 353.703 235.232Z" fill="black" stroke="black" stroke-width="0.972031"/>
<path d="M58.5163 296.47C58.5163 302.267 63.2164 306.967 69.0143 306.967C74.8121 306.967 79.5122 302.267 79.5122 296.47C79.5122 290.672 74.8121 285.972 69.0143 285.972C63.2164 285.972 58.5163 290.672 58.5163 296.47Z" fill="black" stroke="black" stroke-width="0.972031"/>
<path d="M185.386 423.806C185.386 429.324 189.86 433.798 195.378 433.798C200.897 433.798 205.371 429.324 205.371 423.806C205.371 418.287 200.897 413.813 195.378 413.813C189.86 413.813 185.386 418.287 185.386 423.806Z" fill="black" stroke="black" stroke-width="0.972031"/>
<path d="M419.607 201.211C419.607 206.751 424.098 211.242 429.638 211.242C435.178 211.242 439.669 206.751 439.669 201.211C439.669 195.671 435.178 191.179 429.638 191.179C424.098 191.179 419.607 195.671 419.607 201.211Z" fill="black" stroke="black" stroke-width="0.972031"/>
<path d="M487.571 602.66C487.571 608.243 492.097 612.769 497.68 612.769C503.263 612.769 507.789 608.243 507.789 602.66C507.789 597.076 503.263 592.55 497.68 592.55C492.097 592.55 487.571 597.076 487.571 602.66Z" fill="black" stroke="black" stroke-width="0.972031"/>
<path d="M400.963 602.66C400.963 608.296 405.532 612.866 411.169 612.866C416.806 612.866 421.376 608.296 421.376 602.66C421.376 597.023 416.806 592.453 411.169 592.453C405.532 592.453 400.963 597.023 400.963 602.66Z" fill="black" stroke="black" stroke-width="0.972031"/>
<path d="M1.6427 295.497C1.6427 301.032 6.12954 305.519 11.6643 305.519C17.1991 305.519 21.686 301.032 21.686 295.497C21.686 289.963 17.1991 285.476 11.6643 285.476C6.12954 285.476 1.6427 289.963 1.6427 295.497Z" fill="black" stroke="black" stroke-width="0.972031"/>
<path d="M169.707 114.7C169.707 120.288 174.237 124.819 179.826 124.819C185.414 124.819 189.945 120.288 189.945 114.7C189.945 109.111 185.414 104.581 179.826 104.581C174.237 104.581 169.707 109.111 169.707 114.7Z" fill="black" stroke="black" stroke-width="0.972031"/>
<path d="M406.435 557.946C406.435 563.781 411.166 568.512 417.001 568.512C422.837 568.512 427.567 563.781 427.567 557.946C427.567 552.111 422.837 547.38 417.001 547.38C411.166 547.38 406.435 552.111 406.435 557.946Z" fill="black" stroke="black" stroke-width="0.972031"/>
<path d="M3.83956 397.561C3.83956 402.956 8.21325 407.33 13.6085 407.33C19.0037 407.33 23.3774 402.956 23.3774 397.561C23.3774 392.165 19.0037 387.792 13.6085 387.792C8.21325 387.792 3.83956 392.165 3.83956 397.561Z" fill="black" stroke="black" stroke-width="0.972031"/>
<path d="M490.73 564.75C490.73 570.199 495.147 574.616 500.596 574.616C506.045 574.616 510.462 570.199 510.462 564.75C510.462 559.301 506.045 554.884 500.596 554.884C495.147 554.884 490.73 559.301 490.73 564.75Z" fill="black" stroke="black" stroke-width="0.972031"/>
<path d="M107.623 99.1472C107.623 104.666 112.097 109.14 117.616 109.14C123.135 109.14 127.608 104.666 127.608 99.1472C127.608 93.6285 123.135 89.1547 117.616 89.1547C112.097 89.1547 107.623 93.6285 107.623 99.1472Z" fill="black" stroke="black" stroke-width="0.972031"/>
</g>
<defs>
<clipPath id="clip0_113_2">
<rect width="511.288" height="618.212" fill="white" transform="matrix(-1 0 0 1 511.288 0)"/>
</clipPath>
</defs>
</svg>
