<svg width="512" height="619" viewBox="0 0 512 619" fill="none" xmlns="http://www.w3.org/2000/svg">
<g clip-path="url(#clip0_113_2)">
<path d="M510.793 326.603C510.793 335.992 503.181 343.603 493.792 343.603C484.402 343.603 476.791 335.992 476.791 326.603C476.791 317.213 484.402 309.602 493.792 309.602C503.181 309.602 510.793 317.213 510.793 326.603Z" fill="black" stroke="black" stroke-width="0.972031"/>
<path d="M406.873 303.274C406.873 315.396 397.046 325.222 384.924 325.222C372.802 325.222 362.976 315.396 362.976 303.274C362.976 291.152 372.802 281.325 384.924 281.325C397.046 281.325 406.873 291.152 406.873 303.274Z" fill="black" stroke="black" stroke-width="0.972031"/>
<path d="M153.095 597.799C153.095 606.12 146.349 612.866 138.028 612.866C129.707 612.866 122.962 606.12 122.962 597.799C122.962 589.478 129.707 582.733 138.028 582.733C146.349 582.733 153.095 589.478 153.095 597.799Z" fill="black" stroke="black" stroke-width="0.972031"/>
<path d="M299.114 174.966C299.114 183.405 292.272 190.246 283.833 190.246C275.394 190.246 268.553 183.405 268.553 174.966C268.553 166.527 275.394 159.685 283.833 159.685C292.272 159.685 299.114 166.527 299.114 174.966Z" fill="black" stroke="black" stroke-width="0.972031"/>
<path d="M357.241 308.134C357.241 316.466 350.487 323.22 342.155 323.22C333.823 323.22 327.069 316.466 327.069 308.134C327.069 299.802 333.823 293.048 342.155 293.048C350.487 293.048 357.241 299.802 357.241 308.134Z" fill="black" stroke="black" stroke-width="0.972031"/>
<path d="M289.014 46.6576C289.014 52.7399 284.083 57.6707 278.001 57.6707C271.919 57.6707 266.988 52.7399 266.988 46.6576C266.988 40.5752 271.919 35.6445 278.001 35.6445C284.083 35.6445 289.014 40.5752 289.014 46.6576Z" fill="black" stroke="black" stroke-width="0.972031"/>
<path d="M376.477 108.868C376.477 117.623 369.379 124.722 360.624 124.722C351.868 124.722 344.77 117.623 344.77 108.868C344.77 100.112 351.868 93.0138 360.624 93.0138C369.379 93.0138 376.477 100.112 376.477 108.868Z" fill="black" stroke="black" stroke-width="0.972031"/>
<path d="M490.39 599.743C490.39 606.991 484.515 612.866 477.267 612.866C470.02 612.866 464.145 606.991 464.145 599.743C464.145 592.496 470.02 586.621 477.267 586.621C484.515 586.621 490.39 592.496 490.39 599.743Z" fill="black" stroke="black" stroke-width="0.972031"/>
<path d="M367.914 12.6364C367.914 19.3469 362.474 24.7868 355.763 24.7868C349.053 24.7868 343.613 19.3469 343.613 12.6364C343.613 5.92593 349.053 0.486016 355.763 0.486016C362.474 0.486016 367.914 5.92593 367.914 12.6364Z" fill="black" stroke="black" stroke-width="0.972031"/>
<path d="M386.791 45.6855C386.791 56.3794 378.122 65.0484 367.428 65.0484C356.734 65.0484 348.065 56.3794 348.065 45.6855C348.065 34.9917 356.734 26.3227 367.428 26.3227C378.122 26.3227 386.791 34.9917 386.791 45.6855Z" fill="black" stroke="black" stroke-width="0.972031"/>
<path d="M203.776 339.239C203.776 349.245 195.664 357.357 185.658 357.357C175.651 357.357 167.539 349.245 167.539 339.239C167.539 329.232 175.651 321.12 185.658 321.12C195.664 321.12 203.776 329.232 203.776 339.239Z" fill="black" stroke="black" stroke-width="0.972031"/>
<path d="M210.377 290.638C210.377 303.752 199.745 314.384 186.63 314.384C173.515 314.384 162.883 303.752 162.883 290.638C162.883 277.523 173.515 266.891 186.63 266.891C199.745 266.891 210.377 277.523 210.377 290.638Z" fill="black" stroke="black" stroke-width="0.972031"/>
<path d="M261.875 280.917C261.875 286.506 257.344 291.036 251.756 291.036C246.167 291.036 241.637 286.506 241.637 280.917C241.637 275.329 246.167 270.798 251.756 270.798C257.344 270.798 261.875 275.329 261.875 280.917Z" fill="black" stroke="black" stroke-width="0.972031"/>
<path d="M243.941 307.162C243.941 314.656 237.866 320.732 230.371 320.732C222.877 320.732 216.802 314.656 216.802 307.162C216.802 299.668 222.877 293.592 230.371 293.592C237.866 293.592 243.941 299.668 243.941 307.162Z" fill="black" stroke="black" stroke-width="0.972031"/>
<path d="M443.45 585.163C443.45 595.476 435.09 603.836 424.778 603.836C414.465 603.836 406.105 595.476 406.105 585.163C406.105 574.85 414.465 566.49 424.778 566.49C435.09 566.49 443.45 574.85 443.45 585.163Z" fill="black" stroke="black" stroke-width="0.972031"/>
<path d="M510.793 109.84C510.793 119.766 502.746 127.813 492.82 127.813C482.894 127.813 474.847 119.766 474.847 109.84C474.847 99.9136 482.894 91.8669 492.82 91.8669C502.746 91.8669 510.793 99.9136 510.793 109.84Z" fill="black" stroke="black" stroke-width="0.972031"/>
<path d="M343.545 385.897C343.545 393.106 337.7 398.951 330.491 398.951C323.281 398.951 317.436 393.106 317.436 385.897C317.436 378.687 323.281 372.842 330.491 372.842C337.7 372.842 343.545 378.687 343.545 385.897Z" fill="black" stroke="black" stroke-width="0.972031"/>
<path d="M473.272 325.63C473.272 334.698 465.922 342.048 456.854 342.048C447.787 342.048 440.437 334.698 440.437 325.63C440.437 316.563 447.787 309.213 456.854 309.213C465.922 309.213 473.272 316.563 473.272 325.63Z" fill="black" stroke="black" stroke-width="0.972031"/>
<path d="M369.449 561.834C369.449 568.319 364.192 573.576 357.707 573.576C351.222 573.576 345.965 568.319 345.965 561.834C345.965 555.349 351.222 550.092 357.707 550.092C364.192 550.092 369.449 555.349 369.449 561.834Z" fill="black" stroke="black" stroke-width="0.972031"/>
<path d="M178.358 366.456C178.358 372.624 173.358 377.625 167.189 377.625C161.021 377.625 156.021 372.624 156.021 366.456C156.021 360.288 161.021 355.287 167.189 355.287C173.358 355.287 178.358 360.288 178.358 366.456Z" fill="black" stroke="black" stroke-width="0.972031"/>
<path d="M386.693 81.6507C386.693 87.9961 381.549 93.1401 375.204 93.1401C368.859 93.1401 363.715 87.9961 363.715 81.6507C363.715 75.3053 368.859 70.1613 375.204 70.1613C381.549 70.1613 386.693 75.3053 386.693 81.6507Z" fill="black" stroke="black" stroke-width="0.972031"/>
<path d="M190.528 241.064C190.528 249.122 183.996 255.654 175.938 255.654C167.88 255.654 161.348 249.122 161.348 241.064C161.348 233.006 167.88 226.474 175.938 226.474C183.996 226.474 190.528 233.006 190.528 241.064Z" fill="black" stroke="black" stroke-width="0.972031"/>
<path d="M502.88 272.169C502.88 278.262 497.941 283.201 491.848 283.201C485.755 283.201 480.815 278.262 480.815 272.169C480.815 266.076 485.755 261.136 491.848 261.136C497.941 261.136 502.88 266.076 502.88 272.169Z" fill="black" stroke="black" stroke-width="0.972031"/>
<path d="M343.039 146.777C343.039 157.465 334.375 166.13 323.686 166.13C312.998 166.13 304.333 157.465 304.333 146.777C304.333 136.088 312.998 127.424 323.686 127.424C334.375 127.424 343.039 136.088 343.039 146.777Z" fill="black" stroke="black" stroke-width="0.972031"/>
<path d="M317.942 400.477C317.942 406.967 312.68 412.229 306.19 412.229C299.7 412.229 294.438 406.967 294.438 400.477C294.438 393.987 299.7 388.725 306.19 388.725C312.68 388.725 317.942 393.987 317.942 400.477Z" fill="black" stroke="black" stroke-width="0.972031"/>
<path d="M345.538 541.422C345.538 547.585 340.542 552.581 334.379 552.581C328.216 552.581 323.22 547.585 323.22 541.422C323.22 535.259 328.216 530.263 334.379 530.263C340.542 530.263 345.538 535.259 345.538 541.422Z" fill="black" stroke="black" stroke-width="0.972031"/>
<path d="M295.634 433.526C295.634 441.654 289.045 448.242 280.917 448.242C272.789 448.242 266.2 441.654 266.2 433.526C266.2 425.398 272.789 418.809 280.917 418.809C289.045 418.809 295.634 425.398 295.634 433.526Z" fill="black" stroke="black" stroke-width="0.972031"/>
<path d="M505.31 366.456C505.31 377.649 496.236 386.723 485.043 386.723C473.85 386.723 464.777 377.649 464.777 366.456C464.777 355.263 473.85 346.189 485.043 346.189C496.236 346.189 505.31 355.263 505.31 366.456Z" fill="black" stroke="black" stroke-width="0.972031"/>
<path d="M471.911 20.4127C471.911 31.4125 462.994 40.3296 451.994 40.3296C440.995 40.3296 432.078 31.4125 432.078 20.4127C432.078 9.41289 440.995 0.495781 451.994 0.495781C462.994 0.495781 471.911 9.41289 471.911 20.4127Z" fill="black" stroke="black" stroke-width="0.972031"/>
<path d="M370.606 277.029C370.606 283.079 365.702 287.984 359.652 287.984C353.601 287.984 348.697 283.079 348.697 277.029C348.697 270.979 353.601 266.074 359.652 266.074C365.702 266.074 370.606 270.979 370.606 277.029Z" fill="black" stroke="black" stroke-width="0.972031"/>
<path d="M408.525 34.9931C408.525 40.5118 404.051 44.9856 398.533 44.9856C393.014 44.9856 388.54 40.5118 388.54 34.9931C388.54 29.4744 393.014 25.0007 398.533 25.0007C404.051 25.0007 408.525 29.4744 408.525 34.9931Z" fill="black" stroke="black" stroke-width="0.972031"/>
<path d="M340.483 17.4965C340.483 25.1625 334.269 31.3771 326.602 31.3771C318.936 31.3771 312.722 25.1625 312.722 17.4965C312.722 9.83046 318.936 3.6159 326.602 3.6159C334.269 3.6159 340.483 9.83046 340.483 17.4965Z" fill="black" stroke="black" stroke-width="0.972031"/>
<path d="M351.457 586.135C351.457 598.251 341.635 608.073 329.518 608.073C317.402 608.073 307.58 598.251 307.58 586.135C307.58 574.018 317.402 564.196 329.518 564.196C341.635 564.196 351.457 574.018 351.457 586.135Z" fill="black" stroke="black" stroke-width="0.972031"/>
<path d="M271.304 212.875C271.304 220.45 265.163 226.59 257.588 226.59C250.014 226.59 243.873 220.45 243.873 212.875C243.873 205.3 250.014 199.16 257.588 199.16C265.163 199.16 271.304 205.3 271.304 212.875Z" fill="black" stroke="black" stroke-width="0.972031"/>
<path d="M429.123 313.966C429.123 319.587 424.566 324.143 418.945 324.143C413.325 324.143 408.768 319.587 408.768 313.966C408.768 308.345 413.325 303.789 418.945 303.789C424.566 303.789 429.123 308.345 429.123 313.966Z" fill="black" stroke="black" stroke-width="0.972031"/>
<path d="M425.516 348.959C425.516 357.957 418.223 365.251 409.225 365.251C400.228 365.251 392.934 357.957 392.934 348.959C392.934 339.962 400.228 332.668 409.225 332.668C418.223 332.668 425.516 339.962 425.516 348.959Z" fill="black" stroke="black" stroke-width="0.972031"/>
<path d="M329.324 221.623C329.324 229.032 323.319 235.037 315.91 235.037C308.502 235.037 302.496 229.032 302.496 221.623C302.496 214.215 308.502 208.209 315.91 208.209C323.319 208.209 329.324 214.215 329.324 221.623Z" fill="black" stroke="black" stroke-width="0.972031"/>
<path d="M280.577 401.449C280.577 407.703 275.507 412.773 269.253 412.773C262.999 412.773 257.929 407.703 257.929 401.449C257.929 395.195 262.999 390.125 269.253 390.125C275.507 390.125 280.577 395.195 280.577 401.449Z" fill="black" stroke="black" stroke-width="0.972031"/>
<path d="M476.13 571.554C476.13 579.516 469.676 585.97 461.715 585.97C453.754 585.97 447.3 579.516 447.3 571.554C447.3 563.593 453.754 557.139 461.715 557.139C469.676 557.139 476.13 563.593 476.13 571.554Z" fill="black" stroke="black" stroke-width="0.972031"/>
<path d="M126.043 578.359C126.043 585.697 120.094 591.646 112.756 591.646C105.417 591.646 99.4681 585.697 99.4681 578.359C99.4681 571.02 105.417 565.071 112.756 565.071C120.094 565.071 126.043 571.02 126.043 578.359Z" fill="black" stroke="black" stroke-width="0.972031"/>
<path d="M509.422 30.1331C509.422 39.8391 501.554 47.7074 491.848 47.7074C482.142 47.7074 474.273 39.8391 474.273 30.1331C474.273 20.4271 482.142 12.5588 491.848 12.5588C501.554 12.5588 509.422 20.4271 509.422 30.1331Z" fill="black" stroke="black" stroke-width="0.972031"/>
<path d="M495.24 62.2102C495.24 68.9153 489.805 74.3509 483.099 74.3509C476.394 74.3509 470.959 68.9153 470.959 62.2102C470.959 55.5051 476.394 50.0695 483.099 50.0695C489.805 50.0695 495.24 55.5051 495.24 62.2102Z" fill="black" stroke="black" stroke-width="0.972031"/>
<path d="M345.178 276.057C345.178 283.632 339.038 289.772 331.463 289.772C323.888 289.772 317.747 283.632 317.747 276.057C317.747 268.482 323.888 262.342 331.463 262.342C339.038 262.342 345.178 268.482 345.178 276.057Z" fill="black" stroke="black" stroke-width="0.972031"/>
<path d="M510.802 575.443C510.802 583.227 504.492 589.537 496.708 589.537C488.924 589.537 482.614 583.227 482.614 575.443C482.614 567.658 488.924 561.348 496.708 561.348C504.492 561.348 510.802 567.658 510.802 575.443Z" fill="black" stroke="black" stroke-width="0.972031"/>
<path d="M275.561 24.301C275.561 31.0061 270.126 36.4417 263.42 36.4417C256.715 36.4417 251.28 31.0061 251.28 24.301C251.28 17.5959 256.715 12.1603 263.42 12.1603C270.126 12.1603 275.561 17.5959 275.561 24.301Z" fill="black" stroke="black" stroke-width="0.972031"/>
<path d="M402.499 588.079C402.499 599.396 393.325 608.569 382.008 608.569C370.692 608.569 361.518 599.396 361.518 588.079C361.518 576.762 370.692 567.589 382.008 567.589C393.325 567.589 402.499 576.762 402.499 588.079Z" fill="black" stroke="black" stroke-width="0.972031"/>
<path d="M228.913 602.66C228.913 608.296 224.344 612.866 218.707 612.866C213.07 612.866 208.501 608.296 208.501 602.66C208.501 597.023 213.07 592.453 218.707 592.453C224.344 592.453 228.913 597.023 228.913 602.66Z" fill="black" stroke="black" stroke-width="0.972031"/>
<path d="M484.46 294.526C484.46 302.256 478.194 308.523 470.463 308.523C462.733 308.523 456.466 302.256 456.466 294.526C456.466 286.795 462.733 280.528 470.463 280.528C478.194 280.528 484.46 286.795 484.46 294.526Z" fill="black" stroke="black" stroke-width="0.972031"/>
<path d="M510.802 543.366C510.802 549.002 506.233 553.572 500.596 553.572C494.959 553.572 490.39 549.002 490.39 543.366C490.39 537.729 494.959 533.159 500.596 533.159C506.233 533.159 510.802 537.729 510.802 543.366Z" fill="black" stroke="black" stroke-width="0.972031"/>
<path d="M311.837 475.323C311.837 481.126 307.133 485.831 301.33 485.831C295.526 485.831 290.822 481.126 290.822 475.323C290.822 469.52 295.526 464.816 301.33 464.816C307.133 464.816 311.837 469.52 311.837 475.323Z" fill="black" stroke="black" stroke-width="0.972031"/>
<path d="M182.975 594.883C182.975 600.917 178.084 605.809 172.049 605.809C166.015 605.809 161.124 600.917 161.124 594.883C161.124 588.849 166.015 583.957 172.049 583.957C178.084 583.957 182.975 588.849 182.975 594.883Z" fill="black" stroke="black" stroke-width="0.972031"/>
<path d="M311.867 30.1332C311.867 37.0262 306.279 42.614 299.386 42.614C292.493 42.614 286.905 37.0262 286.905 30.1332C286.905 23.2402 292.493 17.6523 299.386 17.6523C306.279 17.6523 311.867 23.2402 311.867 30.1332Z" fill="black" stroke="black" stroke-width="0.972031"/>
<path d="M153.688 560.862C153.688 566.827 148.853 571.662 142.889 571.662C136.924 571.662 132.089 566.827 132.089 560.862C132.089 554.898 136.924 550.063 142.889 550.063C148.853 550.063 153.688 554.898 153.688 560.862Z" fill="black" stroke="black" stroke-width="0.972031"/>
<path d="M266.327 527.813C266.327 535.324 260.238 541.412 252.728 541.412C245.218 541.412 239.129 535.324 239.129 527.813C239.129 520.303 245.218 514.215 252.728 514.215C260.238 514.215 266.327 520.303 266.327 527.813Z" fill="black" stroke="black" stroke-width="0.972031"/>
<path d="M318.476 447.134C318.476 453.383 313.411 458.449 307.162 458.449C300.913 458.449 295.847 453.383 295.847 447.134C295.847 440.885 300.913 435.82 307.162 435.82C313.411 435.82 318.476 440.885 318.476 447.134Z" fill="black" stroke="black" stroke-width="0.972031"/>
<path d="M114.068 217.735C114.068 223.291 109.563 227.796 104.007 227.796C98.4509 227.796 93.9466 223.291 93.9466 217.735C93.9466 212.179 98.4509 207.674 104.007 207.674C109.563 207.674 114.068 212.179 114.068 217.735Z" fill="black" stroke="black" stroke-width="0.972031"/>
<path d="M397.075 11.6644C397.075 17.838 392.07 22.8427 385.896 22.8427C379.723 22.8427 374.718 17.838 374.718 11.6644C374.718 5.49074 379.723 0.486016 385.896 0.486016C392.07 0.486016 397.075 5.49074 397.075 11.6644Z" fill="black" stroke="black" stroke-width="0.972031"/>
<path d="M300.542 143.861C300.542 149.331 296.108 153.766 290.637 153.766C285.167 153.766 280.732 149.331 280.732 143.861C280.732 138.39 285.167 133.956 290.637 133.956C296.108 133.956 300.542 138.39 300.542 143.861Z" fill="black" stroke="black" stroke-width="0.972031"/>
<path d="M331.997 184.686C331.997 191.423 326.535 196.885 319.798 196.885C313.061 196.885 307.599 191.423 307.599 184.686C307.599 177.949 313.061 172.487 319.798 172.487C326.535 172.487 331.997 177.949 331.997 184.686Z" fill="black" stroke="black" stroke-width="0.972031"/>
<path d="M233.735 335.351C233.735 341.503 228.747 346.491 222.595 346.491C216.443 346.491 211.456 341.503 211.456 335.351C211.456 329.199 216.443 324.212 222.595 324.212C228.747 324.212 233.735 329.199 233.735 335.351Z" fill="black" stroke="black" stroke-width="0.972031"/>
<path d="M452.15 354.792C452.15 361.319 446.858 366.611 440.33 366.611C433.802 366.611 428.51 361.319 428.51 354.792C428.51 348.264 433.802 342.972 440.33 342.972C446.858 342.972 452.15 348.264 452.15 354.792Z" fill="black" stroke="black" stroke-width="0.972031"/>
<path d="M428.763 16.5244C428.763 23.0202 423.497 28.286 417.001 28.286C410.506 28.286 405.24 23.0202 405.24 16.5244C405.24 10.0287 410.506 4.76287 417.001 4.76287C423.497 4.76287 428.763 10.0287 428.763 16.5244Z" fill="black" stroke="black" stroke-width="0.972031"/>
<path d="M343.37 245.924C343.37 252.5 338.039 257.831 331.463 257.831C324.886 257.831 319.555 252.5 319.555 245.924C319.555 239.348 324.886 234.017 331.463 234.017C338.039 234.017 343.37 239.348 343.37 245.924Z" fill="black" stroke="black" stroke-width="0.972031"/>
<path d="M162.66 344.099C162.66 349.65 158.16 354.15 152.609 354.15C147.058 354.15 142.558 349.65 142.558 344.099C142.558 338.548 147.058 334.048 152.609 334.048C158.16 334.048 162.66 338.548 162.66 344.099Z" fill="black" stroke="black" stroke-width="0.972031"/>
<path d="M297.529 206.071C297.529 212.561 292.268 217.822 285.777 217.822C279.287 217.822 274.025 212.561 274.025 206.071C274.025 199.58 279.287 194.319 285.777 194.319C292.268 194.319 297.529 199.58 297.529 206.071Z" fill="black" stroke="black" stroke-width="0.972031"/>
<path d="M312.187 121.504C312.187 127.5 307.326 132.362 301.33 132.362C295.333 132.362 290.472 127.5 290.472 121.504C290.472 115.508 295.333 110.646 301.33 110.646C307.326 110.646 312.187 115.508 312.187 121.504Z" fill="black" stroke="black" stroke-width="0.972031"/>
<path d="M316.28 557.946C316.28 564.055 311.327 569.008 305.218 569.008C299.109 569.008 294.156 564.055 294.156 557.946C294.156 551.837 299.109 546.884 305.218 546.884C311.327 546.884 316.28 551.837 316.28 557.946Z" fill="black" stroke="black" stroke-width="0.972031"/>
<path d="M157.586 235.232C157.586 241.201 152.746 246.041 146.777 246.041C140.807 246.041 135.968 241.201 135.968 235.232C135.968 229.262 140.807 224.423 146.777 224.423C152.746 224.423 157.586 229.262 157.586 235.232Z" fill="black" stroke="black" stroke-width="0.972031"/>
<path d="M452.772 296.47C452.772 302.267 448.072 306.967 442.274 306.967C436.476 306.967 431.776 302.267 431.776 296.47C431.776 290.672 436.476 285.972 442.274 285.972C448.072 285.972 452.772 290.672 452.772 296.47Z" fill="black" stroke="black" stroke-width="0.972031"/>
<path d="M325.902 423.806C325.902 429.324 321.429 433.798 315.91 433.798C310.391 433.798 305.918 429.324 305.918 423.806C305.918 418.287 310.391 413.813 315.91 413.813C321.429 413.813 325.902 418.287 325.902 423.806Z" fill="black" stroke="black" stroke-width="0.972031"/>
<path d="M110.325 602.66C110.325 608.296 105.756 612.866 100.119 612.866C94.4823 612.866 89.9128 608.296 89.9128 602.66C89.9128 597.023 94.4823 592.453 100.119 592.453C105.756 592.453 110.325 597.023 110.325 602.66Z" fill="black" stroke="black" stroke-width="0.972031"/>
<path d="M509.646 295.497C509.646 301.032 505.159 305.519 499.624 305.519C494.089 305.519 489.602 301.032 489.602 295.497C489.602 289.963 494.089 285.476 499.624 285.476C505.159 285.476 509.646 289.963 509.646 295.497Z" fill="black" stroke="black" stroke-width="0.972031"/>
<path d="M341.581 114.7C341.581 120.288 337.051 124.819 331.463 124.819C325.874 124.819 321.344 120.288 321.344 114.7C321.344 109.111 325.874 104.581 331.463 104.581C337.051 104.581 341.581 109.111 341.581 114.7Z" fill="black" stroke="black" stroke-width="0.972031"/>
<path d="M104.853 557.946C104.853 563.781 100.122 568.512 94.2869 568.512C88.4515 568.512 83.7209 563.781 83.7209 557.946C83.7209 552.111 88.4515 547.38 94.2869 547.38C100.122 547.38 104.853 552.111 104.853 557.946Z" fill="black" stroke="black" stroke-width="0.972031"/>
<path d="M507.449 397.561C507.449 402.956 503.075 407.33 497.68 407.33C492.285 407.33 487.911 402.956 487.911 397.561C487.911 392.165 492.285 387.792 497.68 387.792C503.075 387.792 507.449 392.165 507.449 397.561Z" fill="black" stroke="black" stroke-width="0.972031"/>
<path d="M403.665 99.1472C403.665 104.666 399.191 109.14 393.673 109.14C388.154 109.14 383.68 104.666 383.68 99.1472C383.68 93.6285 388.154 89.1547 393.673 89.1547C399.191 89.1547 403.665 93.6285 403.665 99.1472Z" fill="black" stroke="black" stroke-width="0.972031"/>
</g>
<defs>
<clipPath id="clip0_113_2">
<rect width="511.288" height="618.212" fill="white"/>
</clipPath>
</defs>
</svg>
